<svg xmlns="http://www.w3.org/2000/svg" viewBox="0 0 400 400" width="400" height="400">
  <defs>
    <linearGradient id="bar" x1="0" y1="0" x2="0" y2="1">
      <stop offset="0%" stop-color="#f2e9ff"/>
      <stop offset="28%" stop-color="#b79cff"/>
      <stop offset="62%" stop-color="#7c5cfc"/>
      <stop offset="100%" stop-color="#5522cc"/>
    </linearGradient>
    <filter id="glow" x="-50%" y="-50%" width="200%" height="200%">
      <feGaussianBlur stdDeviation="9"/>
    </filter>
    <g id="bars">
      <rect x="23" y="184.5" width="18" height="31" rx="7" fill="url(#bar)"/>
      <rect x="51" y="169.0" width="18" height="62" rx="7" fill="url(#bar)"/>
      <rect x="79" y="149.5" width="18" height="101" rx="7" fill="url(#bar)"/>
      <rect x="107" y="127.0" width="18" height="146" rx="7" fill="url(#bar)"/>
      <rect x="135" y="103.5" width="18" height="193" rx="7" fill="url(#bar)"/>
      <rect x="163" y="77.0" width="18" height="246" rx="7" fill="url(#bar)"/>
      <rect x="191" y="53.0" width="18" height="294" rx="7" fill="url(#bar)"/>
      <rect x="219" y="77.0" width="18" height="246" rx="7" fill="url(#bar)"/>
      <rect x="247" y="103.5" width="18" height="193" rx="7" fill="url(#bar)"/>
      <rect x="275" y="127.0" width="18" height="146" rx="7" fill="url(#bar)"/>
      <rect x="303" y="149.5" width="18" height="101" rx="7" fill="url(#bar)"/>
      <rect x="331" y="169.0" width="18" height="62" rx="7" fill="url(#bar)"/>
      <rect x="359" y="184.5" width="18" height="31" rx="7" fill="url(#bar)"/>
    </g>
  </defs>
  <rect width="400" height="400" fill="#000000"/>
  <use href="#bars" filter="url(#glow)" opacity="0.85"/>
  <use href="#bars"/>
</svg>
